<svg xmlns="http://www.w3.org/2000/svg" height="800" width="1200" viewBox="-144.015 -164.675 1248.13 988.05"><path d="M86.7 611.5c0 2.1-1.8 3.8-3.9 3.8H7.9c1.9 18.5 15.8 35.4 35.4 35.4 13.4 0 23.3-5.1 30.8-15.8 1.1-1.5 2.7-2.4 4.8-1.5 1.1.5 1.9 1.5 2.1 2.7.2 1.2-.1 1.9-.5 2.6-7.5 13.1-22.5 19.6-37.3 19.6C18 658.3 0 635.8 0 611.6c0-24.1 18-46.7 43.2-46.7 25.3 0 43.5 22.5 43.5 46.6zm-8-3.7c-1.6-18.5-15.8-35.4-35.4-35.4-19.6 0-33.5 16.9-35.4 35.4zm98.9-41c2.1 0 3.8 1.9 3.8 3.8 0 2.1-1.6 3.8-3.8 3.8h-20.1v78.8c0 1.9-1.6 3.8-3.8 3.8-2.1 0-3.8-1.9-3.8-3.8v-78.8h-19.3c-2.1 0-3.8-1.6-3.8-3.8 0-1.9 1.6-3.8 3.8-3.8h19.3v-28.9c0-1.8 1.2-3.5 3-3.8 2.5-.4 4.5 1.3 4.5 3.7v29zm122.6 38.1v47.7c0 2.1-1.9 3.8-3.8 3.8-2.1 0-3.8-1.6-3.8-3.8v-47.7c0-16.1-9.1-32.2-27.1-32.2-23.1 0-33 20.1-31.6 40.8 0 .5.3 2.9.3 3.2v35.8c0 1.8-1.2 3.5-3 3.8-2.5.4-4.5-1.3-4.5-3.7V495.7c0-1.9 1.6-3.8 3.8-3.8 2.1 0 3.8 1.9 3.8 3.8v88.8c6.4-11.5 18-19.3 31.4-19.3 21.9 0 34.5 19.3 34.5 39.7zm134.3 6.6c0 2.1-1.8 3.8-3.9 3.8h-74.9c1.9 18.5 15.8 35.4 35.4 35.4 13.4 0 23.3-5.1 30.8-15.8 1.1-1.5 2.7-2.4 4.8-1.5 1.1.5 1.9 1.5 2.1 2.7.2 1.2-.1 1.9-.5 2.6-7.5 13.1-22.5 19.6-37.3 19.6-25.2 0-43.2-22.5-43.2-46.7 0-24.1 18-46.7 43.2-46.7 25.3 0 43.5 22.5 43.5 46.6zm-8-3.7c-1.6-18.5-15.8-35.4-35.4-35.4-19.6 0-33.5 16.9-35.4 35.4zm100-37.5c0 2.4-1.3 3.8-3.5 4-22 3.2-31.9 21.2-31.9 42.1v35.8c0 1.8-1.2 3.5-3 3.8-2.5.4-4.5-1.3-4.5-3.7v-81.7c0-1.8 1.2-3.5 3-3.8 2.5-.4 4.5 1.3 4.5 3.7v16.6c6.2-10.5 18.5-20.4 31.4-20.4 1.8.1 4 1.4 4 3.6zm123.1 41.2c0 2.1-1.8 3.8-3.9 3.8h-74.9c1.9 18.5 15.8 35.4 35.4 35.4 13.4 0 23.3-5.1 30.8-15.8 1.1-1.5 2.7-2.4 4.8-1.5 1.1.5 1.9 1.5 2.1 2.7.2 1.2-.1 1.9-.5 2.6-7.5 13.1-22.5 19.6-37.3 19.6-25.2 0-43.2-22.5-43.2-46.7 0-24.1 18-46.7 43.2-46.7 25.2 0 43.4 22.5 43.5 46.6zm-8.1-3.7c-1.6-18.5-15.8-35.4-35.4-35.4-19.6 0-33.5 16.9-35.4 35.4zm129-36.6v81.9c0 2.1-1.9 3.8-3.8 3.8-2.1 0-3.8-1.6-3.8-3.8v-15.6c-6.2 12.3-17.2 21.2-31.1 21.2-22.3 0-34.6-19.3-34.6-39.7v-48c0-1.9 1.6-3.8 3.8-3.8 2.2 0 3.8 1.9 3.8 3.8v48c0 16.1 9.1 32.2 27.1 32.2 25.2 0 31.1-23.6 31.1-49.6V571c0-2.2 2.2-4.4 4.8-3.6 1.7.5 2.7 2.1 2.7 3.8zm189.6 33.4v48c0 2.1-1.9 3.8-3.8 3.8-2.1 0-3.8-1.6-3.8-3.8v-48c0-16.1-9.1-31.9-27.1-31.9-22.5 0-31.1 24.1-31.1 42.9v37c0 2.1-1.9 3.8-3.8 3.8-2.1 0-3.8-1.6-3.8-3.8v-48c0-16.1-9.1-31.9-27.1-31.9-22.8 0-32.2 18-31.4 41.8 0 .5.3 1.6 0 1.9v36.1c0 1.8-1.2 3.5-3 3.8-2.5.4-4.5-1.3-4.5-3.7v-82c0-1.8 1.2-3.5 3-3.8 2.5-.4 4.5 1.3 4.5 3.7v13.7c6.4-11.5 18-19 31.4-19 15.3 0 27.1 9.7 31.9 23.9 6.2-13.9 18.2-23.9 33.8-23.9 22.2 0 34.8 19 34.8 39.4z" fill="#3B3B3B"/><path opacity=".6" d="M480.1 281.9l125.2-74.1-125.2-56.9-125.2 56.9z"/><path opacity=".45" d="M480.1 150.9V0L354.9 207.8l125.2 74.1z"/><path opacity=".8" d="M480.1 281.9l125.2-74.1L480.1 0v150.9z"/><path opacity=".45" d="M480.1 305.6l-125.2-74L480.1 408z"/><path opacity=".8" d="M605.4 231.6l-125.3 74V408z"/></svg>